<svg xmlns="http://www.w3.org/2000/svg" viewBox="0 0 4352 4086">
  <path d="M539.50,4052.99 C523.11,4051.51 508.33,4042.35 500.62,4028.89 C492.16,4014.13 490.29,3979.41 493.14,3890.00 C493.86,3867.46 494.33,3726.21 494.51,3482.50 C495.04,2755.70 496.02,2234.58 496.99,2164.50 C499.50,1982.51 499.39,1964.79 495.44,1917.50 C489.50,1846.44 479.90,1812.53 450.40,1758.41 C412.33,1688.58 361.83,1649.55 268.20,1617.59 C241.01,1608.31 220.14,1604.44 176.00,1600.48 C112.23,1594.77 87.64,1586.75 63.45,1563.75 C29.37,1531.35 22.77,1487.36 45.52,1444.26 C72.93,1392.32 127.80,1376.96 213.09,1397.36 C227.59,1400.82 239.17,1403.19 292.50,1413.58 C332.62,1421.40 358.76,1428.67 394.00,1441.78 C438.24,1458.25 460.52,1457.40 479.60,1438.52 C495.47,1422.82 498.88,1407.34 498.97,1350.50 C499.08,1288.99 502.32,1270.78 515.50,1257.44 C528.15,1244.64 538.64,1242.93 592.00,1244.93 C616.79,1245.86 637.98,1245.48 698.50,1243.02 C864.61,1236.25 940.98,1238.75 984.00,1252.36 C1040.85,1270.34 1110.62,1305.40 1146.46,1334.00 C1165.92,1349.53 1191.54,1377.26 1241.19,1436.50 C1263.32,1462.91 1275.11,1475.20 1303.50,1501.44 C1317.71,1514.58 1329.63,1526.79 1356.32,1555.52 C1364.48,1564.30 1382.93,1582.80 1397.32,1596.63 C1433.98,1631.84 1505.30,1703.85 1519.57,1720.04 C1544.14,1747.93 1563.13,1770.04 1577.53,1787.50 C1606.42,1822.53 1613.98,1830.33 1679.00,1892.16 C1690.28,1902.88 1711.17,1923.99 1725.42,1939.08 C1753.47,1968.75 1808.19,2023.47 1871.23,2084.88 C1893.09,2106.17 1923.69,2136.84 1939.23,2153.03 C1988.12,2203.96 1990.24,2206.02 2033.48,2244.50 C2048.31,2257.70 2070.13,2277.46 2081.97,2288.41 C2128.10,2331.08 2136.76,2337.05 2159.07,2341.58 C2193.52,2348.55 2219.09,2332.19 2306.00,2247.52 C2316.72,2237.08 2333.82,2220.42 2344.00,2210.51 C2354.17,2200.61 2373.74,2181.46 2387.50,2167.96 C2401.25,2154.46 2417.68,2138.50 2424.00,2132.48 C2430.32,2126.46 2447.65,2109.60 2462.50,2095.01 C2477.35,2080.42 2506.34,2052.06 2526.93,2031.99 C2572.23,1987.83 2619.96,1937.47 2671.93,1878.99 C2700.08,1847.31 2759.28,1787.63 2804.50,1745.32 C2850.68,1702.12 2904.50,1646.36 2952.01,1592.50 C2966.12,1576.50 2988.33,1551.94 3004.92,1534.00 C3027.23,1509.88 3091.78,1445.48 3122.00,1417.20 C3138.22,1402.01 3161.18,1380.12 3173.00,1368.54 C3245.97,1297.09 3294.36,1268.05 3373.78,1248.05 C3411.38,1238.58 3482.05,1235.11 3559.00,1238.96 C3622.07,1242.12 3633.06,1242.30 3680.50,1241.01 C3788.46,1238.05 3810.22,1240.32 3824.33,1256.02 C3835.95,1268.95 3838.58,1280.86 3839.43,1324.50 C3841.16,1413.84 3847.13,1436.23 3873.33,1451.61 C3898.99,1466.67 3923.43,1463.72 3994.50,1436.99 C4028.27,1424.28 4030.91,1423.48 4095.00,1406.65 C4197.19,1379.82 4252.84,1383.84 4289.71,1420.71 C4336.95,1467.95 4327.74,1540.25 4270.55,1571.10 C4254.65,1579.68 4235.68,1584.82 4173.00,1597.53 C4087.33,1614.90 4061.55,1622.22 4029.63,1638.19 C3934.65,1685.74 3860.43,1791.05 3844.49,1900.91 C3837.93,1946.14 3837.49,1967.60 3838.95,2171.00 C3840.56,2394.15 3840.68,2561.91 3839.47,2897.00 C3838.38,3200.85 3838.36,3235.09 3838.99,3682.50 C3839.45,4004.50 3839.45,4004.50 3837.29,4012.15 C3830.68,4035.60 3819.16,4045.25 3790.00,4051.76 C3780.61,4053.86 3644.71,4054.52 3545.00,4052.95 C3510.62,4052.40 3421.97,4051.83 3348.00,4051.68 C3213.50,4051.39 3213.50,4051.39 3205.65,4049.20 C3190.76,4045.05 3182.52,4039.16 3175.71,4027.81 C3167.92,4014.80 3167.70,4010.44 3169.81,3907.50 C3170.56,3871.07 3170.86,3826.48 3170.52,3804.00 C3170.18,3782.28 3169.71,3670.68 3169.46,3556.00 C3169.22,3441.32 3168.68,3302.50 3168.26,3247.50 C3167.84,3192.50 3167.50,3060.43 3167.50,2954.00 C3167.50,2767.79 3167.94,2727.60 3170.98,2636.50 C3172.79,2582.03 3172.66,2471.60 3170.76,2456.38 C3166.70,2423.82 3158.66,2407.79 3142.50,2400.02 C3117.24,2387.86 3087.91,2404.05 3041.00,2456.05 C3031.38,2466.72 3015.38,2484.01 3005.45,2494.47 C2995.52,2504.94 2979.57,2522.28 2970.00,2533.00 C2950.30,2555.10 2933.42,2573.44 2918.01,2589.50 C2912.21,2595.55 2899.18,2609.50 2889.06,2620.50 C2878.94,2631.50 2858.68,2653.10 2844.05,2668.50 C2829.41,2683.90 2810.47,2703.89 2801.97,2712.93 C2793.46,2721.96 2776.15,2738.56 2763.50,2749.81 C2740.84,2769.97 2695.64,2814.56 2679.30,2832.88 C2639.47,2877.55 2634.67,2903.25 2654.06,2968.12 C2670.15,3021.96 2677.29,3049.76 2688.02,3100.50 C2689.77,3108.75 2691.36,3115.76 2691.55,3116.08 C2693.09,3118.59 2699.04,3165.54 2704.22,3216.00 C2706.20,3235.30 2705.85,3297.98 2703.67,3314.50 C2701.54,3330.68 2696.67,3358.12 2693.47,3372.00 C2692.14,3377.78 2689.20,3391.05 2686.93,3401.50 C2672.14,3469.67 2633.21,3551.20 2593.10,3598.00 C2533.15,3667.95 2497.38,3700.84 2437.71,3740.88 C2359.35,3793.47 2241.22,3825.15 2142.50,3820.05 C2016.11,3813.52 1915.73,3769.66 1828.92,3683.04 C1805.51,3659.67 1798.99,3651.21 1764.23,3599.00 C1718.86,3530.86 1706.02,3507.26 1684.50,3452.50 C1652.13,3370.10 1641.89,3255.23 1658.93,3165.80 C1672.85,3092.78 1682.68,3052.58 1702.92,2986.00 C1721.21,2925.81 1719.80,2899.74 1696.33,2864.11 C1690.29,2854.94 1607.04,2770.61 1579.99,2746.26 C1564.09,2731.94 1482.69,2649.33 1460.50,2625.00 C1451.22,2614.82 1433.86,2596.15 1421.92,2583.50 C1400.32,2560.62 1392.58,2551.85 1350.38,2502.41 C1285.59,2426.53 1252.67,2395.01 1231.19,2388.32 C1201.39,2379.03 1179.59,2397.94 1173.41,2438.46 C1170.31,2458.75 1171.31,2544.52 1175.53,2620.50 C1179.18,2686.31 1179.90,2844.11 1176.96,2934.50 C1175.63,2975.15 1176.42,3341.83 1177.96,3404.00 C1178.97,3444.61 1177.49,3682.13 1176.05,3711.50 C1173.92,3754.89 1172.76,3845.77 1173.63,3901.50 C1175.00,3989.82 1174.83,4010.32 1172.65,4017.50 C1167.03,4035.97 1155.63,4046.64 1137.50,4050.41 C1131.43,4051.67 1112.75,4051.73 996.50,4050.82 C844.38,4049.64 698.13,4050.28 621.00,4052.46 C564.89,4054.05 552.11,4054.13 539.50,4052.99 Z M890.54,3850.45 C917.10,3847.00 935.30,3836.72 945.56,3819.37 C956.46,3800.95 957.93,3789.12 960.02,3703.00 C960.58,3679.62 961.47,3647.68 962.00,3632.00 C965.37,3531.07 965.43,3521.78 965.49,3106.00 C965.53,2804.91 965.88,2677.31 966.76,2645.50 C968.36,2587.88 969.27,2274.53 967.98,2228.50 C967.04,2195.09 965.00,2135.75 962.98,2083.00 C961.59,2046.68 959.73,1916.05 960.43,1904.50 C962.66,1868.18 976.22,1857.21 1000.95,1871.72 C1007.90,1875.80 1143.43,2008.98 1163.61,2031.57 C1169.05,2037.66 1178.40,2048.23 1184.39,2055.07 C1190.38,2061.91 1204.14,2076.72 1214.98,2088.00 C1225.82,2099.28 1240.92,2115.44 1248.54,2123.92 C1265.51,2142.80 1275.24,2152.47 1298.50,2173.54 C1318.04,2191.25 1399.25,2273.27 1429.14,2305.50 C1447.81,2325.63 1458.74,2336.20 1484.50,2359.06 C1492.20,2365.90 1504.80,2377.58 1512.50,2385.02 C1520.20,2392.47 1537.08,2408.26 1550.00,2420.13 C1576.27,2444.25 1583.64,2451.73 1609.46,2480.50 C1619.34,2491.50 1639.38,2512.65 1654.00,2527.50 C1668.63,2542.35 1686.18,2560.57 1693.00,2568.00 C1699.83,2575.43 1712.20,2588.47 1720.48,2597.00 C1738.27,2615.31 1744.88,2622.68 1767.99,2650.00 C1801.81,2689.99 1847.11,2737.50 1880.72,2768.25 C1901.46,2787.22 1924.20,2808.90 1936.00,2820.94 C1941.22,2826.27 1954.95,2839.63 1966.50,2850.61 C2025.19,2906.44 2032.01,2912.76 2062.56,2939.65 C2094.41,2967.68 2156.17,3035.31 2179.35,3067.55 C2203.58,3101.22 2224.47,3144.61 2231.02,3174.82 C2249.96,3262.20 2229.19,3319.46 2175.81,3327.03 C2139.19,3332.22 2102.17,3306.11 2063.35,3247.70 C2042.71,3216.64 2037.28,3210.36 1997.77,3171.85 C1938.97,3114.55 1925.59,3105.96 1901.19,3109.89 C1855.41,3117.26 1843.91,3178.84 1863.93,3309.34 C1874.34,3377.20 1886.16,3415.70 1906.50,3447.94 C1955.43,3525.50 2004.10,3565.49 2082.00,3592.15 C2175.93,3624.28 2252.04,3613.51 2336.50,3556.13 C2391.75,3518.59 2419.83,3490.51 2446.38,3446.27 C2466.47,3412.79 2496.25,3320.41 2500.95,3277.00 C2507.76,3213.98 2501.35,3157.53 2478.51,3079.39 C2464.71,3032.17 2450.77,3006.04 2414.53,2959.50 C2405.97,2948.50 2393.23,2931.69 2386.23,2922.14 C2342.60,2862.64 2339.78,2859.14 2309.10,2826.50 C2298.24,2814.95 2283.03,2798.53 2275.29,2790.00 C2267.56,2781.47 2253.46,2766.40 2243.96,2756.50 C2234.46,2746.60 2217.19,2727.72 2205.59,2714.53 C2193.99,2701.35 2173.88,2679.53 2160.90,2666.03 C2138.93,2643.18 2129.56,2633.00 2114.50,2615.56 C2102.77,2601.99 2087.18,2586.38 2064.00,2565.01 C2051.07,2553.09 2029.89,2533.02 2016.94,2520.42 C2003.99,2507.81 1977.66,2482.44 1958.44,2464.04 C1894.35,2402.66 1810.72,2318.05 1780.49,2284.00 C1732.50,2229.93 1700.20,2196.00 1659.13,2156.48 C1653.42,2150.99 1639.71,2137.09 1628.65,2125.59 C1608.58,2104.71 1596.43,2092.77 1568.68,2066.67 C1560.60,2059.06 1546.68,2044.88 1537.76,2035.17 C1519.03,2014.76 1508.64,2004.27 1483.11,1980.04 C1473.00,1970.43 1456.28,1953.32 1445.96,1942.01 C1435.01,1930.00 1418.30,1913.27 1405.83,1901.81 C1394.07,1891.02 1373.67,1871.22 1360.48,1857.81 C1347.29,1844.40 1326.60,1824.42 1314.50,1813.40 C1302.40,1802.38 1284.86,1785.07 1275.53,1774.93 C1266.19,1764.80 1246.60,1744.35 1232.00,1729.50 C1217.39,1714.65 1201.34,1697.78 1196.33,1692.00 C1168.34,1659.74 1156.41,1646.54 1138.90,1628.47 C1128.23,1617.46 1114.56,1603.06 1108.52,1596.47 C1091.57,1577.98 1078.69,1564.69 1064.49,1551.02 C967.09,1457.31 959.82,1454.25 830.00,1452.41 C758.29,1451.40 742.56,1454.32 724.90,1471.92 C708.32,1488.45 704.02,1507.62 703.98,1565.21 C703.95,1596.72 703.54,1611.31 700.96,1670.50 C699.07,1713.90 698.90,1828.56 700.57,1927.00 C701.94,2007.96 702.04,2092.40 701.39,2604.00 C700.42,3358.12 700.50,3320.09 699.56,3473.00 C698.98,3567.51 699.08,3614.49 699.92,3640.00 C700.56,3659.53 701.72,3695.07 702.51,3719.00 C703.97,3763.59 705.39,3779.73 709.04,3793.00 C717.48,3823.74 740.49,3843.52 773.64,3848.52 C797.43,3852.12 868.67,3853.29 890.54,3850.45 Z M3559.50,3849.46 C3612.45,3843.19 3633.85,3817.38 3637.02,3756.00 C3640.38,3690.76 3641.46,3430.23 3639.75,3096.00 C3639.19,2985.67 3639.27,2924.45 3640.03,2897.40 C3641.49,2845.44 3641.51,2497.62 3640.05,2439.00 C3638.31,2368.40 3637.52,2147.03 3638.88,2110.50 C3639.52,2093.45 3640.47,2066.68 3641.00,2051.00 C3642.38,2010.14 3642.41,1655.81 3641.05,1618.50 C3640.44,1602.00 3639.52,1574.78 3638.99,1558.00 C3637.43,1507.97 3633.76,1491.13 3620.53,1473.14 C3604.64,1451.56 3580.22,1445.70 3515.32,1447.88 C3424.56,1450.94 3385.94,1461.23 3341.00,1494.36 C3326.30,1505.19 3277.50,1554.67 3232.86,1604.01 C3212.39,1626.64 3202.71,1636.17 3180.00,1656.05 C3170.93,1664.00 3153.58,1680.17 3141.45,1692.00 C3129.32,1703.83 3113.88,1718.67 3107.14,1725.00 C3092.76,1738.49 3078.40,1754.25 3061.82,1774.75 C3044.43,1796.22 3039.12,1802.11 3015.10,1826.50 C3003.19,1838.60 2985.82,1856.83 2976.49,1867.00 C2967.17,1877.17 2950.99,1894.50 2940.52,1905.51 C2930.06,1916.51 2910.40,1937.43 2896.84,1952.01 C2871.38,1979.35 2861.05,1989.43 2823.50,2023.56 C2800.37,2044.57 2789.83,2053.76 2765.95,2073.73 C2748.29,2088.48 2732.66,2103.80 2711.58,2127.00 C2686.97,2154.08 2639.73,2202.20 2606.19,2234.35 C2589.46,2250.38 2567.18,2272.95 2556.67,2284.50 C2546.17,2296.05 2527.62,2315.85 2515.46,2328.50 C2503.30,2341.15 2485.74,2359.82 2476.43,2370.00 C2453.07,2395.55 2444.14,2404.26 2422.89,2422.20 C2369.92,2466.94 2343.04,2504.39 2343.03,2533.50 C2343.02,2556.94 2356.11,2576.92 2390.57,2606.08 C2398.86,2613.10 2414.61,2626.88 2425.57,2636.71 C2463.57,2670.80 2473.64,2676.49 2496.00,2676.49 C2520.66,2676.49 2536.52,2666.64 2582.00,2623.10 C2592.18,2613.36 2606.78,2599.79 2614.45,2592.94 C2628.37,2580.54 2695.99,2514.38 2733.00,2476.98 C2743.89,2465.97 2764.20,2447.18 2779.00,2434.40 C2815.22,2403.13 2845.35,2373.08 2890.68,2323.00 C2905.91,2306.18 2919.85,2292.41 2947.01,2267.37 C2965.80,2250.05 2980.24,2235.54 3003.08,2211.03 C3011.01,2202.52 3024.65,2188.12 3033.39,2179.03 C3049.67,2162.10 3058.64,2151.88 3082.52,2123.01 C3106.82,2093.65 3148.64,2050.20 3173.06,2028.95 C3199.47,2005.98 3225.01,1983.08 3236.02,1972.51 C3255.11,1954.18 3273.41,1937.20 3284.66,1927.38 C3290.25,1922.50 3301.34,1912.36 3309.31,1904.87 C3348.64,1867.84 3364.77,1866.60 3372.40,1900.00 C3379.26,1930.06 3380.86,2287.46 3374.90,2459.00 C3373.57,2497.12 3373.67,2707.25 3375.04,2783.01 C3376.13,2843.02 3376.28,2969.21 3375.51,3173.50 C3374.45,3452.98 3374.34,3571.07 3375.10,3620.50 C3375.53,3649.10 3376.13,3694.05 3376.42,3720.39 C3376.71,3746.73 3377.44,3771.88 3378.04,3776.27 C3384.11,3820.59 3403.04,3841.64 3443.00,3848.53 C3463.51,3852.06 3532.88,3852.62 3559.50,3849.46 Z M2156.00,1138.00 C2144.33,1136.44 2131.42,1132.09 2101.00,1119.48 C2097.97,1118.23 2092.57,1116.00 2089.00,1114.52 C2076.53,1109.37 2059.46,1101.54 2054.71,1098.78 C2052.07,1097.25 2049.56,1096.00 2049.14,1096.00 C2044.31,1096.00 2014.53,1074.36 1999.60,1060.00 C1951.44,1013.70 1946.30,971.71 1988.27,967.41 C2002.01,966.01 2014.90,969.67 2042.88,982.94 C2076.67,998.96 2084.09,1001.12 2097.83,998.96 C2118.86,995.66 2132.55,980.35 2142.51,949.00 C2154.76,910.43 2163.85,898.00 2179.81,898.00 C2191.67,898.00 2202.95,911.81 2212.52,938.00 C2227.71,979.64 2247.80,995.55 2279.58,991.10 C2287.96,989.93 2293.25,988.22 2324.50,976.59 C2353.52,965.80 2370.58,964.91 2383.07,973.55 C2397.02,983.21 2393.68,1008.06 2375.34,1031.00 C2362.47,1047.09 2334.31,1074.83 2322.60,1082.95 C2321.44,1083.75 2317.93,1086.45 2314.78,1088.95 C2304.87,1096.83 2303.71,1097.61 2294.16,1102.92 C2281.29,1110.05 2267.45,1116.05 2255.00,1119.89 C2249.22,1121.67 2241.35,1124.20 2237.50,1125.52 C2205.69,1136.42 2177.01,1140.82 2156.00,1138.00 Z M564.32,1065.57 C534.88,1058.81 530.82,1035.35 553.84,1005.04 C599.98,944.28 683.45,869.42 783.00,799.50 C795.38,790.81 815.33,776.54 827.35,767.79 C872.10,735.19 881.94,729.42 932.83,705.88 C944.75,700.37 958.33,693.80 963.00,691.29 C984.39,679.77 1029.95,654.39 1039.19,648.84 C1086.99,620.13 1166.20,579.02 1208.30,561.08 C1227.41,552.93 1253.93,544.64 1296.50,533.51 C1316.40,528.31 1350.27,518.58 1364.97,513.85 C1371.86,511.64 1391.90,505.11 1409.50,499.34 C1486.30,474.17 1521.80,465.43 1619.91,447.52 C1642.69,443.36 1669.69,438.41 1679.91,436.51 C1690.14,434.62 1714.25,430.33 1733.50,426.98 C1873.22,402.66 1887.32,390.87 1894.49,292.32 C1897.95,244.89 1906.11,218.23 1929.52,177.87 C1961.45,122.83 1997.69,88.23 2051.87,61.07 C2109.18,32.34 2201.76,23.89 2261.39,41.94 C2325.65,61.39 2395.19,114.79 2431.42,172.50 C2454.08,208.58 2462.72,236.63 2469.49,296.00 C2479.64,385.08 2493.79,399.00 2594.42,418.92 C2646.25,429.18 2745.46,448.20 2777.50,454.01 C2851.87,467.52 2889.62,477.28 2966.50,502.91 C2983.00,508.40 3008.65,516.72 3023.50,521.39 C3094.47,543.69 3164.42,570.08 3200.00,587.99 C3263.07,619.72 3306.70,643.47 3382.11,687.12 C3396.20,695.28 3416.22,706.51 3426.61,712.08 C3524.67,764.65 3534.67,786.48 3487.66,845.34 C3429.64,917.98 3408.97,926.65 3360.46,898.70 C3354.43,895.23 3343.20,888.76 3335.50,884.33 C3327.80,879.91 3312.05,871.22 3300.50,865.02 C3288.95,858.83 3270.05,848.26 3258.50,841.54 C3216.84,817.28 3204.86,811.25 3169.00,796.53 C3113.85,773.88 3101.35,768.63 3085.50,761.48 C3028.29,735.66 3000.29,726.49 2912.59,704.90 C2881.29,697.20 2866.49,693.24 2829.00,682.54 C2826.53,681.83 2818.25,679.37 2810.61,677.06 C2802.97,674.76 2790.15,671.30 2782.11,669.38 C2774.07,667.45 2745.01,660.25 2717.51,653.37 C2648.66,636.13 2607.37,627.19 2540.50,615.01 C2525.10,612.20 2499.68,607.49 2484.00,604.52 C2408.36,590.23 2400.30,589.43 2290.00,585.26 C2235.40,583.19 2160.07,582.97 2121.50,584.75 C2106.65,585.43 2077.85,586.06 2057.50,586.14 C1969.85,586.49 1902.18,595.18 1786.00,620.98 C1766.47,625.31 1737.22,631.61 1721.00,634.98 C1686.46,642.14 1655.88,649.56 1607.50,662.51 C1573.08,671.73 1567.50,673.34 1531.50,684.47 C1521.60,687.53 1501.80,692.98 1487.50,696.59 C1398.19,719.12 1333.06,739.23 1270.00,763.73 C1253.78,770.04 1232.62,778.26 1223.00,782.00 C1181.28,798.21 1159.69,808.88 1089.50,847.97 C1077.95,854.41 1059.95,864.31 1049.50,869.98 C1019.34,886.34 1002.00,897.10 949.62,931.97 C889.17,972.20 879.52,979.60 844.50,1012.51 C790.21,1063.52 786.49,1064.75 684.67,1065.43 C648.83,1065.67 608.48,1066.11 595.00,1066.43 C575.79,1066.87 569.16,1066.69 564.32,1065.57 Z M3604.00,1062.25 C3553.51,1058.44 3551.11,1037.29 3594.95,982.65 C3606.72,967.97 3625.30,942.98 3646.00,914.00 C3682.48,862.90 3699.37,841.99 3733.58,805.51 C3741.33,797.26 3756.40,781.06 3767.08,769.53 C3777.76,757.99 3795.05,739.53 3805.50,728.50 C3825.57,707.33 3840.23,691.10 3861.53,666.53 C3868.66,658.29 3880.80,644.56 3888.50,636.00 C3913.00,608.79 3916.29,604.99 3937.11,580.00 C3958.50,554.31 3970.15,539.65 3991.52,511.54 C4040.69,446.84 4096.81,404.32 4146.00,394.47 C4218.47,379.97 4292.28,430.13 4301.52,500.14 C4307.13,542.67 4298.39,580.40 4274.22,618.00 C4250.35,655.12 4232.34,672.51 4163.40,725.00 C4105.39,769.17 4054.15,811.01 4020.62,841.58 C3999.39,860.93 3973.29,883.42 3957.59,895.88 C3948.84,902.82 3933.99,914.56 3924.59,921.97 C3884.28,953.73 3866.74,969.12 3834.00,1001.46 C3789.69,1045.24 3777.67,1053.42 3747.61,1060.30 C3739.33,1062.19 3624.03,1063.75 3604.00,1062.25 Z M2222.08,367.11 C2262.67,359.74 2283.63,336.64 2281.64,301.50 C2278.93,253.78 2239.08,208.29 2193.57,200.95 C2135.01,191.50 2077.51,241.47 2077.87,301.50 C2078.11,342.34 2104.16,363.15 2161.50,368.30 C2176.03,369.61 2212.24,368.89 2222.08,367.11 Z" fill="#5b7a54" fill-rule="evenodd"/>
  <path d="M2170.00,1847.41 C2121.47,1841.68 2067.14,1822.61 2023.00,1795.80 C1983.39,1771.74 1972.52,1764.19 1932.00,1732.62 C1876.35,1689.26 1817.94,1628.89 1792.91,1588.87 C1751.90,1523.28 1726.57,1412.78 1736.33,1342.00 C1753.33,1218.73 1804.38,1153.27 1898.02,1134.65 C1933.47,1127.60 1992.95,1128.58 2019.33,1136.65 C2023.82,1138.03 2028.05,1139.25 2028.72,1139.38 C2029.39,1139.51 2030.26,1139.92 2030.64,1140.30 C2031.02,1140.69 2032.01,1141.00 2032.85,1141.00 C2038.01,1141.00 2064.62,1156.74 2092.00,1175.99 C2166.85,1228.62 2188.99,1229.91 2247.85,1185.10 C2251.89,1182.02 2257.25,1178.06 2259.76,1176.30 C2262.27,1174.54 2264.59,1172.73 2264.91,1172.29 C2265.24,1171.85 2267.30,1170.16 2269.50,1168.55 C2271.70,1166.93 2273.72,1165.33 2274.00,1164.98 C2274.28,1164.64 2277.65,1162.04 2281.50,1159.20 C2285.35,1156.37 2289.74,1153.10 2291.25,1151.95 C2322.29,1128.26 2409.45,1115.92 2462.85,1127.65 C2525.25,1141.36 2570.49,1178.69 2602.64,1243.00 C2634.19,1306.12 2639.85,1369.76 2620.56,1444.50 C2603.96,1508.82 2560.38,1599.33 2523.78,1645.50 C2510.34,1662.46 2466.65,1706.49 2450.52,1719.33 C2438.44,1728.95 2340.74,1794.37 2321.24,1805.91 C2272.64,1834.64 2209.25,1852.04 2170.00,1847.41 Z" fill="#c4442b" fill-rule="evenodd"/>
</svg>